<?xml version="1.0" standalone="no"?>
<!DOCTYPE svg PUBLIC "-//W3C//DTD SVG 20010904//EN"
 "http://www.w3.org/TR/2001/REC-SVG-20010904/DTD/svg10.dtd">
<svg version="1.0" xmlns="http://www.w3.org/2000/svg"
 width="256.000000pt" height="256.000000pt" viewBox="0 0 256.000000 256.000000"
 preserveAspectRatio="xMidYMid meet">
<metadata>
Created by potrace 1.14, written by Peter Selinger 2001-2017
</metadata>
<g transform="translate(0.000000,256.000000) scale(0.100000,-0.100000)"
fill="#000000" stroke="none">
<path d="M2300 2248 c-6 -7 -20 -28 -31 -46 -29 -50 -46 -51 -89 -4 -20 23
-34 44 -31 48 3 3 -6 0 -22 -7 -15 -7 -25 -14 -23 -16 2 -3 -2 -19 -9 -38 -8
-18 -12 -35 -9 -37 3 -3 -4 -8 -16 -11 -11 -3 -20 -1 -20 5 0 5 -4 6 -10 3 -8
-5 -15 10 -8 18 2 1 -11 17 -27 35 -24 28 -31 30 -43 19 -7 -8 -15 -20 -16
-28 -9 -40 -29 -80 -36 -69 -4 6 -11 12 -16 12 -22 1 -32 11 -27 25 4 11 2 14
-5 9 -7 -4 -12 -2 -12 6 0 7 -9 19 -19 25 -16 10 -22 9 -33 -4 -11 -14 -11
-16 2 -8 11 6 11 4 -2 -11 -9 -10 -17 -23 -17 -29 -2 -24 -13 -45 -21 -40 -5
3 -10 1 -12 -4 -4 -13 -39 14 -42 33 -3 22 -44 58 -56 51 -6 -3 -10 -13 -10
-21 0 -8 -5 -14 -11 -14 -6 0 -9 -7 -6 -15 4 -8 2 -17 -4 -20 -5 -4 -7 -10 -4
-15 8 -13 -25 -21 -46 -10 -10 6 -19 17 -19 25 0 8 -4 15 -10 15 -5 0 -10 7
-10 16 0 8 -4 13 -9 10 -5 -4 -11 0 -14 6 -5 15 -27 -1 -31 -23 -8 -38 -29
-79 -40 -79 -7 0 -24 14 -37 31 -56 73 -56 73 -70 47 -7 -13 -14 -25 -14 -28
-6 -44 -18 -60 -41 -60 -17 0 -28 7 -31 20 -3 11 -9 20 -13 20 -5 0 -12 9 -15
20 -3 11 -11 20 -16 20 -13 0 -39 -26 -39 -39 0 -22 -24 -61 -37 -61 -15 0
-64 45 -63 57 1 5 -7 14 -18 21 -18 12 -21 10 -32 -20 -16 -42 -17 -45 -19
-63 -1 -9 -7 -12 -18 -8 -11 5 -14 3 -8 -6 6 -10 3 -11 -12 -2 -11 6 -28 26
-37 45 -19 39 -40 51 -56 30 -7 -8 -9 -14 -4 -14 4 0 3 -5 -4 -12 -7 -7 -12
-19 -12 -28 0 -9 -8 -24 -17 -33 -15 -13 -21 -13 -35 -3 -10 7 -15 16 -11 19
3 4 -2 9 -11 13 -9 3 -14 10 -11 14 3 5 -4 15 -16 24 -18 12 -24 13 -35 1 -8
-7 -14 -17 -14 -20 0 -16 -33 -75 -42 -75 -12 0 -27 15 -56 57 -14 19 -28 30
-37 27 -13 -5 -41 -71 -37 -86 1 -5 -1 -8 -5 -9 -5 0 -16 -2 -26 -4 -12 -2
-22 5 -29 21 -6 13 -15 24 -20 24 -4 0 -8 10 -8 23 0 18 -2 19 -10 7 -8 -13
-10 -12 -10 3 0 14 -3 15 -19 6 -11 -7 -16 -19 -13 -31 2 -10 -1 -18 -8 -18
-7 0 -10 -6 -7 -14 8 -21 -26 -44 -51 -35 -12 5 -22 14 -22 21 0 13 -43 68
-52 68 -5 0 -15 -28 -17 -46 0 -2 -7 -12 -16 -21 -9 -8 -14 -21 -11 -28 6 -17
-23 -28 -39 -15 -9 8 -12 7 -11 -2 0 -7 -3 -14 -8 -15 -5 -1 -12 -5 -15 -10
-3 -5 -19 -14 -34 -21 -37 -16 -30 -34 19 -47 59 -15 69 -24 47 -41 -10 -7
-26 -14 -35 -14 -10 0 -18 -4 -18 -8 0 -5 -10 -14 -22 -20 -18 -8 -19 -11 -5
-11 9 -1 17 -6 17 -11 0 -6 3 -9 7 -8 5 1 22 -1 40 -4 23 -5 31 -12 29 -25 -2
-10 -6 -17 -10 -15 -4 1 -14 -4 -22 -13 -9 -8 -22 -15 -30 -15 -8 0 -14 -9
-14 -21 0 -11 4 -18 9 -15 5 4 12 0 14 -6 4 -11 6 -11 6 0 1 8 6 9 19 3 9 -5
25 -12 35 -15 24 -8 5 -37 -34 -55 -32 -14 -41 -51 -11 -46 9 1 23 -3 31 -9 8
-6 16 -10 18 -8 10 7 23 0 23 -13 0 -13 -53 -49 -74 -50 -17 0 -18 -25 -1 -25
9 0 14 -4 10 -9 -3 -6 2 -9 12 -7 10 2 31 -2 46 -9 l28 -11 -20 -23 c-11 -13
-25 -20 -30 -16 -6 3 -11 1 -11 -4 0 -6 -6 -11 -14 -11 -8 0 -17 -7 -20 -16
-3 -8 -2 -13 3 -9 5 3 11 0 13 -5 2 -6 14 -12 28 -14 33 -4 60 -16 60 -26 0
-10 -72 -56 -82 -53 -4 2 -6 -5 -5 -15 1 -12 11 -18 34 -19 18 -1 42 -8 54
-17 20 -13 20 -16 6 -22 -9 -3 -14 -11 -10 -18 3 -6 3 -8 -2 -4 -4 4 -17 2
-29 -4 -11 -7 -25 -11 -29 -10 -5 1 -6 -2 -2 -8 3 -5 0 -10 -7 -10 -8 -1 -6
-6 6 -15 10 -8 22 -12 26 -10 5 3 22 -1 40 -9 l32 -13 -23 -22 c-13 -12 -33
-24 -45 -27 -28 -7 -25 -39 4 -40 12 -1 25 -3 30 -4 4 -2 14 -3 22 -4 30 -2
15 -38 -25 -60 -22 -11 -41 -25 -42 -31 -2 -12 34 -28 62 -28 11 0 26 -6 33
-13 9 -10 6 -17 -17 -33 -16 -12 -39 -25 -52 -30 -13 -5 -18 -10 -11 -10 6 -1
12 -7 12 -14 0 -9 10 -12 30 -9 18 3 30 0 30 -7 0 -6 6 -11 13 -11 8 0 14 -7
14 -15 0 -8 -6 -15 -14 -15 -7 0 -13 -5 -13 -11 0 -5 -4 -8 -9 -5 -11 7 -58
-30 -49 -39 3 -4 12 -7 20 -9 7 -1 19 -5 26 -9 6 -5 16 -6 21 -3 4 3 17 -2 27
-10 10 -9 13 -13 7 -9 -8 4 -13 0 -13 -10 0 -8 -8 -19 -17 -22 -10 -4 -28 -13
-41 -21 -22 -14 -23 -16 -5 -26 19 -11 24 -13 47 -15 8 0 22 -8 30 -17 9 -8
20 -13 24 -10 11 7 59 -39 67 -64 4 -11 11 -18 16 -15 5 4 9 1 9 -6 0 -7 8 -5
20 6 11 10 20 26 20 35 0 10 8 28 18 40 17 21 17 21 40 2 12 -11 22 -24 22
-31 0 -6 5 -11 11 -11 6 0 9 -7 5 -15 -4 -11 1 -15 19 -15 14 0 24 3 23 8 -1
4 3 17 10 28 6 12 8 24 5 28 -3 3 -1 6 6 6 7 0 9 5 6 10 -3 5 -1 10 5 10 6 0
9 4 6 9 -3 4 4 8 15 7 11 -1 28 -14 37 -31 9 -16 24 -38 34 -48 16 -18 16 -18
23 2 3 12 11 19 16 16 5 -4 9 5 9 19 0 14 5 26 11 26 5 0 8 4 4 9 -6 10 11 24
32 27 7 1 15 -6 18 -17 4 -10 11 -19 16 -19 5 0 9 -6 9 -13 0 -7 8 -20 18 -28
16 -14 20 -14 33 0 7 9 13 18 13 21 -1 3 5 22 13 42 14 34 17 36 39 26 13 -6
24 -17 24 -25 0 -7 3 -13 8 -13 4 0 15 -12 24 -27 10 -16 18 -22 18 -15 0 7 4
11 9 8 9 -6 21 15 28 48 2 11 12 28 22 37 17 16 19 16 35 -3 9 -11 22 -30 28
-43 12 -26 57 -40 59 -19 3 29 4 33 17 46 6 6 12 20 12 30 0 32 34 20 60 -22
36 -58 64 -61 73 -9 6 33 28 69 43 69 6 0 22 -14 35 -32 46 -61 50 -63 70 -37
10 13 17 26 17 29 -1 17 16 49 28 54 13 5 54 -25 54 -40 0 -11 29 -34 43 -34
14 0 42 49 33 58 -5 4 32 42 41 42 5 0 43 -40 41 -42 -2 -2 5 -13 13 -26 25
-35 54 -12 63 49 1 3 9 14 20 24 18 19 19 18 42 -10 13 -17 24 -35 24 -41 0
-15 26 -25 44 -18 8 3 17 17 21 32 3 15 13 37 21 49 15 24 44 31 44 11 0 -18
50 -78 65 -78 12 0 42 39 37 48 -6 7 0 21 16 39 15 18 20 19 35 8 9 -7 17 -16
17 -20 0 -5 12 -23 26 -42 l26 -34 14 27 c13 24 21 50 23 77 1 4 8 7 16 7 8 0
15 6 15 13 0 8 4 7 10 -3 5 -8 10 -10 10 -5 0 6 5 3 11 -5 9 -13 10 -13 6 1
-7 21 1 31 46 51 56 27 50 40 -20 41 -13 1 -23 5 -23 10 0 4 -4 6 -9 3 -5 -3
-11 0 -14 8 -6 16 18 41 50 50 37 12 44 30 17 43 -18 8 -22 8 -17 0 4 -8 2 -8
-9 0 -8 7 -18 10 -21 6 -4 -3 -7 -1 -7 5 0 7 -7 12 -15 12 -14 0 -13 3 2 24
10 13 20 23 23 21 3 -2 19 3 35 10 17 7 24 14 17 14 -7 1 -10 6 -7 11 5 9 -23
15 -47 11 -5 0 -8 4 -8 9 0 6 -8 10 -17 8 -12 -2 -19 5 -21 21 -2 13 1 21 6
17 5 -3 15 1 22 9 7 8 16 13 20 10 5 -3 15 2 24 10 13 13 13 19 3 30 -6 7 -13
9 -15 4 -2 -5 -12 -4 -23 2 -11 5 -23 7 -28 5 -5 -3 -12 1 -15 10 -3 9 -11 12
-18 8 -7 -4 -4 2 6 14 11 12 27 22 38 22 10 0 18 5 18 10 0 6 7 10 15 10 29 0
15 28 -17 35 -18 4 -36 9 -40 10 -5 1 -12 3 -18 4 -5 0 -10 7 -10 14 0 16 54
49 65 39 5 -4 5 -1 1 6 -4 7 -1 12 8 12 17 0 21 15 7 24 -5 4 -21 7 -35 8 -14
1 -26 6 -26 11 0 5 -6 7 -14 4 -8 -3 -17 0 -19 7 -6 15 24 44 39 39 15 -5 47
34 39 47 -3 5 -11 8 -16 5 -5 -4 -9 -2 -9 3 0 6 -13 9 -30 8 -17 -1 -32 4 -35
12 -7 19 4 34 21 28 8 -3 13 0 11 6 -1 7 3 13 8 13 42 6 64 45 25 45 -11 0
-20 5 -20 11 0 6 -7 8 -16 5 -16 -6 -44 9 -44 25 0 4 20 18 44 30 48 23 52 48
10 50 -43 2 -47 4 -57 21 -8 12 -7 21 2 32 7 8 16 15 19 14 4 -1 19 4 34 12
22 11 25 15 13 26 -7 7 -27 15 -45 16 -34 3 -56 21 -45 38 8 13 56 34 69 31 5
-1 6 5 3 14 -4 10 -1 15 10 15 26 0 11 8 -27 15 -19 3 -43 8 -52 11 -22 7 -19
44 4 44 10 0 18 4 18 9 0 5 14 12 31 16 30 7 30 7 10 22 -12 8 -32 16 -46 17
-13 1 -30 8 -38 14 -8 7 -17 9 -21 5 -4 -4 -4 0 0 10 3 9 12 17 20 17 8 0 14
5 14 10 0 6 6 10 13 10 17 1 65 39 50 41 -16 2 -32 6 -35 8 -2 2 -14 5 -28 7
-39 7 -46 21 -24 46 28 31 67 88 60 88 -3 0 -10 -6 -16 -12z m-579 -491 c0 -7
2 -19 4 -28 1 -9 -9 -27 -24 -41 -22 -20 -31 -23 -57 -16 -41 10 -67 59 -50
93 6 13 12 22 14 20 2 -2 15 3 29 10 23 12 30 12 55 -6 15 -11 28 -26 29 -32z
m354 -3 c19 -25 19 -30 -7 -75 -19 -34 -34 -44 -60 -40 -5 0 -8 -4 -8 -10 0
-5 -4 -7 -10 -4 -5 3 -10 3 -11 -2 -2 -19 -8 -40 -23 -75 -9 -21 -13 -38 -10
-38 4 0 1 -6 -5 -13 -6 -8 -8 -17 -4 -20 3 -4 2 -7 -4 -7 -5 0 -10 -6 -11 -12
-3 -35 -8 -54 -15 -59 -4 -3 -9 -15 -12 -27 -2 -12 -7 -28 -12 -35 -4 -6 -8
-14 -8 -17 -2 -15 -29 -87 -36 -96 -5 -6 -9 -25 -11 -42 -1 -18 -5 -32 -9 -32
-8 0 -24 -41 -21 -53 1 -4 -5 -21 -13 -37 -9 -17 -13 -30 -10 -30 3 0 -1 -10
-10 -23 -8 -13 -12 -27 -8 -30 10 -10 -12 -8 -22 2 -11 9 -80 34 -105 38 -28
3 -60 12 -70 18 -6 3 -10 3 -10 -2 0 -4 -20 -7 -44 -5 -24 2 -54 -2 -66 -8
-15 -8 -20 -8 -16 -1 10 15 -7 14 -22 -1 -7 -7 -12 -9 -12 -4 0 4 -10 0 -21
-8 -12 -8 -28 -12 -35 -9 -8 3 -14 0 -14 -6 0 -6 -3 -10 -7 -9 -19 5 -84 -41
-145 -103 -38 -38 -68 -72 -68 -77 0 -4 -4 -13 -9 -21 -7 -11 -13 -11 -32 -1
-13 7 -26 16 -29 21 -3 4 -12 9 -20 11 -8 2 -24 13 -36 24 -11 12 -31 25 -42
29 -12 3 -22 11 -22 16 0 5 -8 13 -18 16 -17 7 -28 15 -57 41 -7 6 -18 12 -24
12 -6 0 -11 4 -11 9 0 5 -10 13 -21 16 -22 7 -141 94 -147 108 -2 4 -10 7 -18
7 -8 0 -14 5 -14 10 0 6 -5 10 -10 10 -10 0 -21 8 -54 37 -8 7 -16 9 -20 6 -3
-4 -6 -1 -6 6 0 8 -6 8 -22 -2 -13 -8 -29 -13 -35 -12 -7 2 -24 3 -38 4 -14 0
-25 7 -25 15 0 8 -5 16 -11 18 -14 5 -18 39 -7 64 8 16 18 21 41 19 39 -2 69
-14 80 -32 5 -7 12 -11 18 -8 5 4 9 1 9 -4 0 -6 6 -11 13 -11 8 0 24 -9 37
-20 13 -11 29 -20 37 -20 7 0 13 -4 13 -10 0 -5 7 -10 15 -10 8 0 15 -4 15
-10 0 -5 7 -10 15 -10 9 0 18 -6 21 -13 3 -8 10 -14 17 -14 7 0 19 -4 28 -7
12 -5 15 0 15 23 0 17 -3 28 -7 26 -4 -3 -7 23 -8 57 0 38 -5 65 -13 70 -10 6
-9 8 2 8 9 0 11 3 5 8 -21 14 -9 33 47 77 55 43 98 58 98 34 0 -6 9 -9 20 -6
11 3 20 0 20 -6 0 -6 3 -7 7 -4 3 4 17 0 31 -9 17 -11 22 -12 16 -3 -7 12 -5
12 9 1 9 -8 20 -11 26 -8 5 3 11 1 13 -5 7 -20 36 3 42 34 12 65 32 127 39
121 3 -4 5 2 3 12 -6 32 21 57 77 70 4 1 8 2 10 3 1 2 13 4 26 7 14 2 29 8 35
13 13 11 50 -12 38 -23 -4 -4 -2 -7 3 -5 16 4 65 -23 59 -32 -3 -5 0 -9 6 -9
6 0 25 -13 43 -30 30 -28 67 -40 67 -22 0 4 14 22 30 41 17 18 30 38 30 42 0
5 6 9 13 9 6 0 18 13 25 29 7 17 21 31 30 33 26 6 52 -3 46 -16 -3 -6 1 -3 9
6 8 10 17 15 21 11 4 -4 19 -7 34 -8 17 0 30 -8 38 -22 6 -13 14 -20 19 -15 4
4 5 -1 2 -10 -4 -11 -2 -18 5 -18 6 0 9 -3 5 -6 -3 -4 0 -13 8 -20 8 -8 11
-22 8 -31 -4 -10 -2 -14 4 -10 9 6 18 -5 28 -33 10 -28 19 -38 31 -33 8 3 13
10 11 17 -2 6 2 17 10 24 7 8 11 18 8 23 -4 5 -1 9 5 9 6 0 8 5 5 10 -3 6 -1
10 6 10 7 0 10 3 6 6 -3 3 3 25 13 49 10 24 15 47 12 51 -4 4 -2 4 5 1 7 -5
14 4 18 23 4 16 11 30 16 30 5 0 8 3 7 8 -3 14 25 61 33 56 5 -3 9 -1 9 5 0
16 50 5 65 -15z m-905 -5 c0 -5 3 -8 8 -5 10 6 47 -22 39 -30 -4 -4 -3 -12 2
-18 5 -6 3 -24 -5 -41 -7 -16 -13 -25 -14 -20 0 6 -4 4 -9 -3 -10 -17 -42 -22
-58 -9 -7 5 -13 6 -13 2 0 -4 -6 -2 -14 5 -8 6 -12 19 -9 27 4 10 2 14 -4 10
-13 -8 -12 11 1 32 6 10 5 12 -2 7 -7 -4 -12 -2 -12 3 0 6 5 11 11 11 5 0 8 4
4 10 -3 5 9 14 27 19 45 13 48 13 48 0z m-391 -281 c18 -30 5 -77 -25 -84 -13
-3 -22 -9 -20 -13 3 -4 -4 -7 -14 -7 -10 0 -16 4 -14 8 3 4 -4 8 -15 8 -12 0
-21 7 -21 15 0 8 -4 15 -9 15 -16 0 -9 59 8 74 34 30 86 23 110 -16z"/>
<path d="M1544 1525 c-10 -8 -16 -15 -11 -15 4 0 -1 -8 -10 -19 -10 -10 -30
-34 -45 -52 -16 -18 -28 -28 -28 -21 0 7 -4 11 -9 8 -5 -3 -14 1 -21 9 -7 8
-19 15 -28 15 -8 0 -13 3 -9 6 8 8 -16 33 -25 27 -5 -2 -8 1 -8 8 0 7 -3 9 -7
6 -3 -4 -13 3 -21 14 -14 20 -15 21 -25 3 -7 -13 -7 -19 1 -22 7 -2 9 -9 5
-15 -10 -14 -10 -60 -2 -67 11 -9 99 -143 99 -151 0 -4 -13 -10 -30 -14 -30
-7 -38 -19 -20 -30 5 -3 7 -12 4 -20 -3 -7 4 -19 16 -25 18 -10 21 -9 15 1 -6
9 -4 11 7 6 9 -3 19 -3 23 1 4 4 19 8 33 8 15 1 29 2 32 3 3 1 11 16 19 34 7
17 20 45 27 61 8 16 11 32 8 37 -3 5 -1 9 4 9 6 0 13 12 17 28 11 42 14 142 3
142 -5 0 -4 9 2 20 13 24 10 25 -16 5z"/>
<path d="M1729 1538 c-1 -2 -3 -16 -4 -33 -2 -16 -4 -30 -5 -30 -2 0 -5 -17
-13 -60 -3 -16 -8 -39 -12 -50 -5 -16 -5 -17 3 -5 8 11 11 8 10 -15 -1 -17 3
-41 8 -55 4 -14 9 -37 10 -52 3 -45 3 -48 15 -48 5 0 7 5 4 10 -3 6 -1 10 6
10 7 0 10 3 6 6 -3 4 3 24 14 45 11 22 16 39 12 39 -5 0 -2 4 6 9 22 14 25 80
4 103 -10 11 -17 21 -15 22 2 0 0 9 -3 18 -4 10 -12 15 -19 11 -6 -4 -4 2 4
12 9 11 10 16 3 11 -12 -6 -18 5 -14 27 0 4 -4 7 -10 7 -5 0 -7 5 -4 10 3 6 4
10 1 10 -3 0 -7 -1 -7 -2z"/>
<path d="M1113 1435 c2 -14 0 -22 -4 -19 -5 3 -9 -3 -10 -13 0 -10 -3 -27 -5
-38 -3 -11 -6 -26 -6 -32 -1 -7 -5 -13 -10 -13 -4 0 -7 -5 -6 -12 2 -7 -7 -13
-19 -14 -13 -1 -23 3 -23 8 0 5 -6 8 -12 6 -18 -3 -72 12 -78 22 -3 5 -11 6
-18 1 -9 -5 -8 -12 6 -27 9 -10 23 -31 29 -46 7 -16 17 -28 23 -28 5 0 10 -6
10 -12 1 -13 83 -68 101 -68 5 0 9 -4 9 -10 0 -5 7 -10 15 -10 8 0 15 -3 15
-7 0 -5 11 -13 24 -19 20 -9 30 -8 54 7 17 9 33 15 36 12 3 -4 6 -1 6 6 0 8 7
11 15 7 18 -6 17 26 -1 58 -9 14 -15 16 -31 8 -12 -7 -25 -7 -34 -1 -10 6 -10
9 -1 9 6 0 12 5 12 11 0 5 -4 8 -9 5 -5 -3 -8 6 -8 19 0 14 3 28 8 31 5 3 3
13 -3 24 -9 14 -9 22 3 36 12 15 12 17 0 9 -10 -6 -13 -4 -9 6 3 8 -3 30 -13
49 -10 19 -19 31 -19 25 -1 -5 -5 -1 -9 9 -4 11 -15 20 -25 22 -14 2 -17 -3
-13 -21z"/>
<path d="M1621 1302 c-1 -13 -5 -20 -11 -17 -6 4 -9 3 -8 -2 1 -4 -8 -27 -20
-50 -27 -52 -27 -57 -1 -42 15 8 19 8 15 0 -4 -6 -3 -11 3 -11 5 0 13 4 16 10
4 6 17 4 35 -5 l30 -15 -11 27 c-6 16 -10 28 -9 28 2 0 -19 57 -29 80 -9 19
-10 19 -10 -3z"/>
<path d="M774 1222 c2 -4 7 -39 11 -77 4 -39 8 -74 9 -80 1 -11 39 -42 44 -37
2 2 12 -6 21 -17 10 -12 22 -21 26 -21 4 0 19 -8 33 -18 15 -10 35 -22 45 -25
17 -7 17 -6 0 26 -10 17 -22 35 -28 39 -5 4 -6 8 -1 8 5 0 3 6 -3 13 -6 8 -8
17 -4 20 3 4 1 7 -6 7 -7 0 -11 6 -9 12 5 13 -2 23 -39 64 -13 14 -23 30 -23
36 0 6 -3 9 -6 6 -3 -4 -18 7 -33 23 -26 26 -49 40 -37 21z"/>
<path d="M988 1083 c2 -18 9 -33 14 -33 6 0 8 -7 5 -15 -4 -8 -2 -17 4 -21 6
-3 8 -12 5 -20 -8 -20 11 -17 33 5 11 11 29 24 40 31 27 14 27 30 1 30 -11 0
-20 5 -20 11 0 5 -4 8 -9 5 -5 -4 -11 -3 -13 1 -1 5 -17 15 -33 24 l-31 16 4
-34z"/>
<path d="M70 1980 c-13 -8 -12 -10 3 -10 9 0 17 -3 17 -8 0 -4 8 -12 19 -19
17 -11 18 -10 7 12 -6 13 -14 21 -17 19 -4 -2 -9 0 -11 6 -2 6 -8 6 -18 0z"/>
<path d="M2455 595 c9 -17 26 -32 37 -32 16 -2 17 1 8 12 -7 8 -16 13 -20 12
-5 -1 -16 7 -25 18 -15 18 -15 17 0 -10z"/>
<path d="M305 380 c-3 -5 -3 -10 1 -10 4 0 -5 -10 -19 -23 -26 -22 -36 -47
-19 -47 9 0 45 59 48 78 3 15 -3 16 -11 2z"/>
</g>
</svg>
